# Blender v2.92.0 OBJ File: 'MainModCornerBlock.blend'
# www.blender.org
mtllib corneroutobj_main.mtl
o Cube
v 1.000000 0.000000 0.000000
v 1.000000 0.000000 1.000000
v 0.000000 0.000000 0.000000
v 0.000000 1.000000 1.000000
v 0.000000 0.000000 1.000000
vt 0.000000 1.000000
vt 0.000000 0.000000
vt 1.000000 1.000000
vt 0.000000 0.000000
vt 1.000000 0.000000
vt 0.000000 1.000000
vt 0.000000 0.000000
vt 1.000000 0.000000
vt 1.000000 1.000000
vt 0.000000 0.000000
vt 1.000000 0.000000
vt 0.000000 1.000000
vn 0.0000 0.0000 1.0000
vn -1.0000 0.0000 0.0000
vn 0.0000 -1.0000 0.0000
vn 0.4082 0.8165 -0.4082
usemtl Material
s off
f 5/1/1 2/2/1 4/3/1
f 5/4/2 4/5/2 3/6/2
f 3/7/3 1/8/3 2/9/3 5/1/3
f 1/10/4 3/11/4 4/3/4 2/12/4
