# Blender v2.92.0 OBJ File: ''
# www.blender.org

mtllib slopeobjmain.mtl
o Cube.001
v 0.000000 0.000000 0.000000
v 0.000000 -0.000000 1.000000
v 1.000000 1.000000 1.000000
v 1.000000 1.000000 0.000000
v 1.000000 0.000000 0.000000
v 1.000000 -0.000000 1.000000
vt 0.000000 1.000000
vt 1.000000 0.000000
vt 0.000000 0.000000
vt 1.000000 0.000000
vt 0.000000 1.000000
vt 0.000000 0.000000
vt 1.000000 1.000000
vt 0.000000 1.000000
vt 1.000000 0.000000
vt 0.000000 0.000000
vt 1.000000 1.000000
vt 1.000000 1.000000
vn -0.7071 0.7071 0.0000
vn 0.0000 -1.0000 -0.0000
vn 1.0000 0.0000 0.0000
vn 0.0000 0.0000 -1.0000
vn 0.0000 -0.0000 1.0000
usemtl Material
s 1
f 2/1/1 4/2/1 1/3/1
f 5/4/2 2/1/2 1/3/2
f 4/2/3 6/5/3 5/6/3
f 1/3/4 4/7/4 5/8/4
f 3/9/5 2/1/5 6/10/5
f 2/1/1 3/11/1 4/2/1
f 5/4/2 6/12/2 2/1/2
f 4/2/3 3/11/3 6/5/3
